<svg version="1.1" id="Layer_1" xmlns="http://www.w3.org/2000/svg" xmlns:xlink="http://www.w3.org/1999/xlink" x="0px" y="0px"
	 viewBox="0 0 1656 2520" enable-background="new 0 0 1656 2520" xml:space="preserve">
<g>
	<path fill="none" d="M800.1,1250.6c0-4.8-3.8-8.8-8.6-8.8c-4.7,0-8.6,3.9-8.6,8.8c0,4.8,3.8,8.8,8.6,8.8
		C796.3,1259.3,800.1,1255.4,800.1,1250.6z M786,1250.6c0-3.5,2.2-5.7,5.6-5.7c3.4,0,5.6,2.2,5.6,5.7c0,3.5-2.2,6-5.6,6
		C788.1,1256.6,786,1254,786,1250.6z"/>
	<path fill="none" d="M816.2,1247c0,3.2,2,4.3,5.6,5.2c3.1,0.7,3.7,1.4,3.7,2.5v0c0,1.1-0.8,1.3-2.8,1.3c-1.9,0-3.5-0.7-5.2-2.2
		l-0.1-0.1l-1.9,2.3l0.1,0.1c2,1.8,4.4,2.7,7,2.7c4,0,6-1.5,6-4.4v0c0-2.6-1.6-4.1-5.4-5.1c-3.3-0.8-3.9-1.4-3.9-2.6v0
		c0-1.3,1.4-1.5,2.6-1.5c1.5,0,2.9,0.6,4.4,1.7l0.1,0.1l1.7-2.4l-0.1-0.1c-1.8-1.4-3.8-2.1-6.1-2.1
		C818.4,1242.3,816.2,1244.1,816.2,1247L816.2,1247z"/>
	<polygon fill="none" points="806,1259.1 809.1,1259.1 809.1,1253.9 816.9,1242.6 813.3,1242.6 807.6,1251.4 801.8,1242.6 
		798.2,1242.6 806,1253.9 	"/>
	<polygon fill="none" points="829.1,1245.7 834.1,1245.7 834.1,1259.4 837.1,1259.4 837.1,1245.7 842.1,1245.7 842.1,1242.8 
		829.1,1242.8 	"/>
	<polygon fill="none" points="856.6,1256.6 846.5,1256.6 846.5,1253.8 851.5,1253.8 851.5,1250.9 846.5,1250.9 846.5,1245.4 
		856.5,1245.4 856.5,1242.6 843.4,1242.6 843.4,1259.5 856.6,1259.5 	"/>
	<path fill="none" d="M868.7,1254.6c2.5-0.7,4.2-3.3,4.2-6.3v-0.1c0-1.6-0.5-2.9-1.5-3.9c-1.1-1.1-2.9-1.8-5.1-1.8h-7.9v16.9h3.1
		v-4.3h3.9l4.3,4.3h3.7L868.7,1254.6z M861.5,1252.3v-6.9h4.5c2.3,0,3.7,1.1,3.7,3v0.1c0,1.8-1.4,3.8-3.6,3.8H861.5z"/>
	<path fill="none" d="M825.8,1234.1v6.4h2.7v-6.4c3.7-0.7,7-4.2,7-8.6c0-4.8-3.9-8.7-8.5-8.7c-4.7,0-8.5,3.9-8.5,8.7
		C818.5,1229.9,821.7,1233.5,825.8,1234.1z M826.9,1219.5c3.3,0,5.9,2.7,5.9,6s-2.6,6-5.9,6c-3.3,0-5.9-2.7-5.9-6
		S823.7,1219.5,826.9,1219.5z"/>
	<path fill="none" d="M865.2,1263.3c-0.2-0.5-0.9-0.6-1.3-0.2l-4.4,5.1c-0.5,0.6,0,1.5,0.8,1.3l2.7-0.7c-0.4,15-15.7,27.6-34.1,28.3
		v-25.9h12.1v-1.8h-26.8v1.8h12.4v25.9c-18.7-0.4-34.3-13-34.8-28.2l2.3,0.6c0.7,0.2,1.3-0.7,0.8-1.3l-4.4-5.1
		c-0.4-0.4-1.1-0.3-1.3,0.2l-2.9,7c-0.3,0.7,0.6,1.4,1.2,0.9l1.8-1.4c0.5,7.6,4.5,15,11.2,20.6c7.1,5.9,16.3,9.2,26.1,9.3v3.4h2.4
		v-3.4c9.5-0.3,18.5-3.6,25.4-9.3c6.6-5.5,10.6-12.8,11.2-20.3l1.4,1.1c0.6,0.5,1.5-0.2,1.2-0.9L865.2,1263.3z"/>
	<polygon fill="none" points="813.2,1261.1 812.1,1261.1 810.7,1265.3 809.5,1261.1 808.1,1261.1 810.1,1267.3 811.2,1267.3 
		812.6,1263.3 814,1267.3 815.1,1267.3 817.1,1261.1 815.8,1261.1 814.5,1265.3 	"/>
	<path fill="none" d="M818.3,1264.2L818.3,1264.2c0,1.8,1.3,3.2,3.2,3.2c1.8,0,3.2-1.4,3.2-3.2v0c0-1.7-1.3-3.1-3.2-3.1
		C819.7,1261,818.3,1262.4,818.3,1264.2z M823.3,1264.2L823.3,1264.2c0,1.1-0.7,1.9-1.8,1.9c-1.1,0-1.8-0.9-1.8-1.9v0
		c0-1,0.7-1.9,1.8-1.9C822.6,1262.3,823.3,1263.1,823.3,1264.2z"/>
	<path fill="none" d="M831.9,1263.2L831.9,1263.2c0-0.6-0.2-1.1-0.5-1.4c-0.4-0.4-1-0.6-1.7-0.6h-2.7v6.1h1.3v-2h1l1.3,2h1.5
		l-1.5-2.2C831.4,1264.8,831.9,1264.1,831.9,1263.2z M830.6,1263.2c0,0.5-0.4,0.9-1,0.9h-1.3v-1.8h1.3
		C830.2,1262.3,830.6,1262.6,830.6,1263.2L830.6,1263.2z"/>
	<polygon fill="none" points="834.4,1261.1 834.4,1267.2 838.7,1267.2 838.7,1266 835.8,1266 835.8,1261.1 	"/>
	<path fill="none" d="M840.6,1267.2h2.3c1.9,0,3.2-1.3,3.2-3.1v0c0-1.7-1.3-3-3.2-3h-2.3V1267.2z M841.9,1262.3h1
		c1.1,0,1.8,0.8,1.8,1.8v0c0,1.1-0.7,1.8-1.8,1.8h-1V1262.3z"/>
</g>
</svg>
